<svg width="1241" height="1358" viewBox="0 0 1241 1358" fill="none" xmlns="http://www.w3.org/2000/svg">
<path d="M0 718.785C0 784.59 48.9371 838.141 109.072 838.141H363.574V1116.64C363.574 1182.44 412.511 1235.99 472.646 1235.99C495.237 1235.99 562.716 1227.56 578.301 1133.05C580.41 1128.02 581.719 1122.52 581.719 1116.64C581.719 863.577 799.669 758.57 913.783 758.57C933.877 758.57 950.141 740.773 950.141 718.785V241.363C950.141 219.375 933.877 201.578 913.783 201.578H804.396C787.987 201.578 768.208 196.671 750.417 186.964C672.418 144.473 582.688 122.008 495.503 122.008H254.502C194.367 122.008 145.43 175.559 145.43 241.363C145.43 257.065 148.362 271.998 153.428 285.763C107.085 299.503 72.7148 345.494 72.7148 400.504C72.7148 421.882 78.2896 441.642 87.3063 459.015C78.8471 464.903 71.1636 471.985 64.4738 480.074C47.0223 501.16 36.3574 529.01 36.3574 559.645C36.3574 581.022 41.9322 600.782 50.9488 618.155C20.4328 639.347 0 676.401 0 718.785Z" fill="#FEDBAB"/>
<path d="M986.498 122.008H1131.93C1192.07 122.008 1241 175.548 1241 241.363V718.785C1241 784.6 1192.07 838.141 1131.93 838.141H986.498C926.353 838.141 877.426 784.6 877.426 718.785V241.363C877.426 175.548 926.353 122.008 986.498 122.008Z" fill="#17ACE8"/>
<path d="M1059.21 599.43C1039.13 599.43 1022.86 617.242 1022.86 639.215C1022.86 661.188 1039.13 679 1059.21 679C1079.29 679 1095.57 661.188 1095.57 639.215C1095.57 617.242 1079.29 599.43 1059.21 599.43Z" fill="#136EF1"/>
<path d="M87.3063 459.015C78.2896 441.642 72.7148 421.882 72.7148 400.504C72.7148 345.494 107.085 299.503 153.428 285.763C148.362 271.998 145.43 257.065 145.43 241.363C145.43 175.559 194.367 122.008 254.502 122.008L495.503 122.008C582.688 122.008 672.418 144.473 750.417 186.964C768.208 196.671 787.987 201.578 804.396 201.578H913.783C933.877 201.578 950.141 219.375 950.141 241.363V480.074L64.4738 480.074C71.1636 471.985 78.8471 464.903 87.3063 459.015Z" fill="#FEC478"/>
<path d="M1241 480.074V241.363C1241 175.548 1192.07 122.008 1131.93 122.008H986.498C926.353 122.008 877.426 175.548 877.426 241.363V480.074H1241Z" fill="#1689FC"/>
</svg>
