<!-- icon666.com - MILLIONS vector ICONS FREE --><svg version="1.1" id="Capa_1" xmlns="http://www.w3.org/2000/svg" xmlns:xlink="http://www.w3.org/1999/xlink" x="0px" y="0px" viewBox="0 0 512 512" style="enable-background:new 0 0 512 512;" xml:space="preserve"><path style="fill:#FEDBAB;" d="M512,241c0-24.81-20.19-45-45-45H362V91c0-24.81-20.19-45-45-45c-9.32,0-37.16,3.18-43.59,38.81 c-0.87,1.9-1.41,3.97-1.41,6.19c0,95.41-89.92,135-137,135c-8.29,0-15,6.71-15,15v180c0,8.29,6.71,15,15,15h45.13 c6.77,0,14.93,1.85,22.27,5.51C234.58,457.53,271.6,466,307.57,466H407c24.81,0,45-20.19,45-45c0-5.92-1.21-11.55-3.3-16.74 c19.12-5.18,33.3-22.52,33.3-43.26c0-8.06-2.3-15.51-6.02-22.06c3.49-2.22,6.66-4.89,9.42-7.94c7.2-7.95,11.6-18.45,11.6-30 c0-8.06-2.3-15.51-6.02-22.06C503.57,270.95,512,256.98,512,241z"></path><path style="fill:#17ACE8;" d="M105,466H45c-24.814,0-45-20.186-45-45V241c0-24.814,20.186-45,45-45h60c24.814,0,45,20.186,45,45 v180C150,445.814,129.814,466,105,466z"></path><circle style="fill:#136EF1;" cx="75" cy="271" r="15"></circle><path style="fill:#FEC478;" d="M475.98,338.94c3.72,6.55,6.02,14,6.02,22.06c0,20.74-14.18,38.08-33.3,43.26 c2.09,5.19,3.3,10.82,3.3,16.74c0,24.81-20.19,45-45,45h-99.43c-35.97,0-72.99-8.47-105.17-24.49c-7.34-3.66-15.5-5.51-22.27-5.51 H135c-8.29,0-15-6.71-15-15v-90h365.4C482.64,334.05,479.47,336.72,475.98,338.94z"></path><path style="fill:#1689FC;" d="M0,331v90c0,24.814,20.186,45,45,45h60c24.814,0,45-20.186,45-45v-90H0z"></path></svg>