<?xml version="1.0" standalone="no"?>
        <!DOCTYPE svg PUBLIC "-//W3C//DTD SVG 1.1//EN" 
        "http://www.w3.org/Graphics/SVG/1.1/DTD/svg11.dtd">  <svg xmlns="http://www.w3.org/2000/svg" xmlns:xlink="http://www.w3.org/1999/xlink" width="40" zoomAndPan="magnify" viewBox="0 0 30 30.000001" height="40" preserveAspectRatio="xMidYMid meet" version="1.0"><defs><clipPath id="id1"><path d="M 6.65625 3.191406 L 23.351562 3.191406 L 23.351562 26.417969 L 6.65625 26.417969 Z M 6.65625 3.191406 " clip-rule="nonzero"/></clipPath></defs><g clip-path="url(#id1)"><path fill="rgb(6.269836%, 5.879211%, 5.099487%)" d="M 21.332031 14.203125 C 21.332031 17.824219 18.308594 20.359375 15.007812 20.359375 C 11.714844 20.359375 8.6875 17.824219 8.6875 14.203125 L 6.65625 14.203125 C 6.65625 18.324219 9.902344 21.730469 13.816406 22.320312 L 13.816406 26.277344 L 16.203125 26.277344 L 16.203125 22.320312 C 20.117188 21.730469 23.363281 18.324219 23.363281 14.203125 Z M 15.007812 17.824219 C 16.984375 17.824219 18.574219 16.199219 18.574219 14.203125 L 18.585938 6.957031 C 18.585938 4.949219 16.988281 3.332031 15.007812 3.332031 C 13.035156 3.332031 11.429688 4.949219 11.429688 6.957031 L 11.429688 14.203125 C 11.429688 16.199219 13.035156 17.824219 15.007812 17.824219 " fill-opacity="1" fill-rule="nonzero"/></g></svg>  